<svg xmlns="http://www.w3.org/2000/svg" viewBox="0 0 368.64 357.05"><defs><style>.cls-1{fill:#1b57a6;fill-rule:evenodd;}</style></defs><g id="Layer_1" data-name="Layer 1"><path class="cls-1" d="M373.9,240.26l-3.91-3.5,0,0L250.17,120.37l0,0h0a5.56,5.56,0,0,0-7.74,0l-121,116.39-2.58,2.48a5.57,5.57,0,0,0-2,4.29V416.72a5.58,5.58,0,0,0,5.59,5.58h85.78V317.53a5.58,5.58,0,0,1,5.58-5.58h65.14a5.58,5.58,0,0,1,5.58,5.58V422.3h85.78a5.58,5.58,0,0,0,5.59-5.58V244.41h0A5.54,5.54,0,0,0,373.9,240.26Z" transform="translate(-61.94 -65.25)"/><path class="cls-1" d="M427.11,232.76,254,68.32a11.17,11.17,0,0,0-15.38,0L161,142V108.31H105.55v86.33L65.41,232.76a11.15,11.15,0,1,0,15.37,16.17L246.26,91.79,411.74,248.93a11.15,11.15,0,1,0,15.37-16.17Z" transform="translate(-61.94 -65.25)"/></g></svg>