<?xml version="1.0" encoding="utf-8"?>
<!-- Generator: Adobe Illustrator 25.4.1, SVG Export Plug-In . SVG Version: 6.00 Build 0)  -->
<svg version="1.1" id="Layer_1" xmlns="http://www.w3.org/2000/svg" xmlns:xlink="http://www.w3.org/1999/xlink" x="0px" y="0px"
	 viewBox="0 0 1200 1200" style="enable-background:new 0 0 1200 1200;" xml:space="preserve">
<style type="text/css">
	.st0{fill:#FFFFFF;}
</style>
<polygon id="XMLID_824_" class="st0" points="543.3,690.5 690.4,600 543.3,509.5 "/>
<path d="M1070.2,319.5c-34,15-70,24.9-106.8,29.3c38.9-23.2,67.9-59.9,81.7-103c-36.5,21.7-76.4,37-118,45.1
	c-70.3-74.9-188.1-78.5-262.9-8.2c-37.4,35.1-58.6,84.1-58.6,135.4c0,14.3,1.6,28.5,4.8,42.5c-149.4-7.3-288.7-77.5-383.4-193.2
	c-49,84.7-24.1,192.9,57.1,247.5c-29.6-0.9-58.5-8.9-84.3-23.2v2.5c0.1,88.5,62.5,164.7,149.3,182.2c-27.4,7.4-56.1,8.5-84,3.2
	c24.3,75.8,94.1,127.7,173.6,129.1c-65.9,51.5-147.1,79.4-230.7,79.2c-14.8,0-29.6-0.9-44.4-2.7c85.1,54.8,184.3,83.9,285.6,83.6
	c342.7,0,529.1-283.3,529.1-528.9c0-8.2,0-16.2,0-24.2C1014.3,389.3,1045.5,356.7,1070.2,319.5z"/>
</svg>
