<svg xmlns="http://www.w3.org/2000/svg" viewBox="0 0 105.9 105.9"><defs><style>.cls-1{fill:none;stroke:#646464;stroke-miterlimit:10;stroke-width:4px;}.cls-2{fill:#646464;}</style></defs><g id="Layer_2" data-name="Layer 2"><g id="home"><circle class="cls-1" cx="52.95" cy="52.95" r="50.95"/><path class="cls-2" d="M51.93,38,27.41,58.21V80a2.12,2.12,0,0,0,2.12,2.13l14.91,0A2.12,2.12,0,0,0,46.56,80V67.24a2.13,2.13,0,0,1,2.13-2.13H57.2a2.13,2.13,0,0,1,2.13,2.13V80a2.13,2.13,0,0,0,2.12,2.14h0l14.9,0A2.13,2.13,0,0,0,78.49,80V58.2L54,38a1.63,1.63,0,0,0-2,0ZM90.67,51.74,79.55,42.57V24.15A1.6,1.6,0,0,0,78,22.55H70.51a1.6,1.6,0,0,0-1.6,1.6v9.66L57,24a6.38,6.38,0,0,0-8.11,0L15.21,51.74A1.6,1.6,0,0,0,15,54h0l3.39,4.12a1.6,1.6,0,0,0,2.25.22h0L51.93,32.56a1.63,1.63,0,0,1,2,0L85.26,58.33a1.6,1.6,0,0,0,2.25-.21h0L90.9,54a1.59,1.59,0,0,0-.22-2.24Z"/></g></g></svg>