<svg xmlns="http://www.w3.org/2000/svg" viewBox="0 0 105.9 105.9"><defs><style>.cls-1{fill:none;stroke:#646464;stroke-miterlimit:10;stroke-width:4px;}.cls-2{fill:#646464;}</style></defs><g id="Layer_2" data-name="Layer 2"><g id="plane_copy_2" data-name="plane copy 2"><circle class="cls-1" cx="52.95" cy="52.95" r="50.95"/><path class="cls-2" d="M68.81,31.8H60a7.05,7.05,0,1,0-14.1,0H37.08a5.29,5.29,0,0,0-5.28,5.28V75.86a5.29,5.29,0,0,0,5.28,5.29H68.81a5.29,5.29,0,0,0,5.29-5.29V37.08A5.29,5.29,0,0,0,68.81,31.8ZM42.37,71.45A2.64,2.64,0,1,1,45,68.81,2.63,2.63,0,0,1,42.37,71.45Zm0-10.57A2.65,2.65,0,1,1,45,58.24,2.64,2.64,0,0,1,42.37,60.88Zm0-10.58A2.64,2.64,0,1,1,45,47.66,2.63,2.63,0,0,1,42.37,50.3ZM53,29.15A2.65,2.65,0,1,1,50.3,31.8,2.64,2.64,0,0,1,53,29.15Zm14.1,40.54a.88.88,0,0,1-.88.88H50.3a.88.88,0,0,1-.88-.88V67.93a.88.88,0,0,1,.88-.88H66.17a.88.88,0,0,1,.88.88Zm0-10.57a.89.89,0,0,1-.88.88H50.3a.89.89,0,0,1-.88-.88V57.35a.89.89,0,0,1,.88-.88H66.17a.89.89,0,0,1,.88.88Zm0-10.58a.88.88,0,0,1-.88.88H50.3a.88.88,0,0,1-.88-.88V46.78a.88.88,0,0,1,.88-.88H66.17a.88.88,0,0,1,.88.88Z"/></g></g></svg>