<svg xmlns="http://www.w3.org/2000/svg" viewBox="0 0 105.9 105.9"><defs><style>.cls-1{fill:none;stroke:#646464;stroke-miterlimit:10;stroke-width:4px;}.cls-2{fill:#646464;}</style></defs><g id="Layer_2" data-name="Layer 2"><g id="counselling"><circle class="cls-1" cx="52.95" cy="52.95" r="50.95"/><path class="cls-2" d="M39.68,50.46a11.61,11.61,0,1,0-11.61-11.6A11.6,11.6,0,0,0,39.68,50.46Zm8,3.32h-.86a16,16,0,0,1-14.2,0h-.86A12,12,0,0,0,19.78,65.72v3a5,5,0,0,0,5,5H54.61a5,5,0,0,0,5-5v-3A12,12,0,0,0,47.64,53.78Zm21.89-3.32a10,10,0,1,0-10-10A10,10,0,0,0,69.53,50.46Zm5,3.32h-.4a13.05,13.05,0,0,1-9.16,0h-.39a11.47,11.47,0,0,0-5.78,1.6A15.15,15.15,0,0,1,62.9,65.72v4c0,.23,0,.45-.06.67h18.3a5,5,0,0,0,5-5A11.6,11.6,0,0,0,74.51,53.78Z"/></g></g></svg>