<svg xmlns="http://www.w3.org/2000/svg" viewBox="0 0 105.9 105.9"><defs><style>.cls-1{fill:none;stroke:#646464;stroke-miterlimit:10;stroke-width:4px;}.cls-2{fill:#646464;}</style></defs><g id="Layer_2" data-name="Layer 2"><g id="globe"><circle class="cls-1" cx="52.95" cy="52.95" r="50.95"/><path class="cls-2" d="M53,20a33,33,0,1,0,33,33A33,33,0,0,0,53,20ZM63.89,67.53c-.51.51-1.06,1-1.5,1.5a3.14,3.14,0,0,0-.82,1.42,21.44,21.44,0,0,1-.64,2.25l-2.31,6.23a26.48,26.48,0,0,1-5.67.62V75.91c.22-1.68-1-4.82-3-6.82a4.25,4.25,0,0,1-1.25-3V61.82A4.24,4.24,0,0,0,46.5,58.1c-1.91-1.05-4.63-2.53-6.49-3.47a19.31,19.31,0,0,1-4.21-2.89l-.11-.1a15.06,15.06,0,0,1-2.4-2.76C32,47.05,30,44,28.69,42.08A26.73,26.73,0,0,1,42.42,28.53l3.19,1.59a2.13,2.13,0,0,0,3.08-1.9v-1.5a26.69,26.69,0,0,1,3.25-.32l3.76,3.76a2.13,2.13,0,0,1,0,3l-.62.62L53.7,35.17a1.07,1.07,0,0,0,0,1.5l.62.63a1.05,1.05,0,0,1,0,1.5l-1.06,1.07a1.1,1.1,0,0,1-.75.31h-1.2a1,1,0,0,0-.74.3l-1.32,1.28A1.07,1.07,0,0,0,49,43l2.07,4.15a1.06,1.06,0,0,1-1,1.54h-.75a1,1,0,0,1-.69-.26l-1.24-1.07a2.14,2.14,0,0,0-2.07-.42l-4.14,1.39a1.59,1.59,0,0,0-.21,2.93l1.47.73a9,9,0,0,0,4,1c1.4,0,3,3.63,4.26,4.25H59.7a4.25,4.25,0,0,1,3,1.25l1.82,1.82a4.06,4.06,0,0,1,1.19,2.87A6.18,6.18,0,0,1,63.89,67.53ZM75.43,55.38a3.23,3.23,0,0,1-1.88-1.33l-2.4-3.59a3.21,3.21,0,0,1,0-3.54L73.76,43A3.21,3.21,0,0,1,75,41.93l1.73-.87A26.54,26.54,0,0,1,79.55,53a27.34,27.34,0,0,1-.24,3.4Z"/></g></g></svg>