<?xml version="1.0" encoding="utf-8"?>
<!-- Generator: Adobe Illustrator 25.4.1, SVG Export Plug-In . SVG Version: 6.00 Build 0)  -->
<svg version="1.1" id="Layer_1" xmlns="http://www.w3.org/2000/svg" xmlns:xlink="http://www.w3.org/1999/xlink" x="0px" y="0px"
	 viewBox="0 0 1200 1200" style="enable-background:new 0 0 1200 1200;" xml:space="preserve">
<style type="text/css">
	.st0{fill:#FFFFFF;}
</style>
<polygon id="XMLID_824_" class="st0" points="543.3,690.5 690.4,600 543.3,509.5 "/>
<g>
	<g>
		<path d="M786.7,1032.9H414.2c-135.7,0-246.1-110.4-246.1-246.1V414.2c0-135.7,110.4-246.1,246.1-246.1h372.5
			c135.7,0,246.1,110.4,246.1,246.1v372.5C1032.9,922.5,922.5,1032.9,786.7,1032.9z M414.2,242.2c-94.8,0-172,77.2-172,172v372.5
			c0,94.8,77.2,172,172,172h372.5c94.8,0,172-77.2,172-172V414.2c0-94.8-77.2-172-172-172H414.2z"/>
	</g>
	<g>
		<path d="M600.5,821.9c-122.1,0-221.4-99.3-221.4-221.4c0-122.1,99.3-221.4,221.4-221.4c122.1,0,221.4,99.3,221.4,221.4
			C821.9,722.6,722.6,821.9,600.5,821.9z M600.5,453.2c-81.2,0-147.3,66.1-147.3,147.3c0,81.2,66.1,147.3,147.3,147.3
			c81.2,0,147.3-66.1,147.3-147.3C747.8,519.3,681.7,453.2,600.5,453.2z"/>
	</g>
	<g>
		<path d="M884.6,366.4c0,29.4-23.8,53.2-53.2,53.2c-29.4,0-53.2-23.8-53.2-53.2c0-29.4,23.8-53.2,53.2-53.2
			C860.8,313.2,884.6,337,884.6,366.4z"/>
	</g>
</g>
</svg>
