<svg xmlns="http://www.w3.org/2000/svg" viewBox="0 0 105.9 105.9"><defs><style>.cls-1{fill:none;stroke:#646464;stroke-miterlimit:10;stroke-width:4px;}.cls-2{fill:#646464;}</style></defs><g id="Layer_2" data-name="Layer 2"><g id="dollar"><circle class="cls-1" cx="52.95" cy="52.95" r="50.95"/><path class="cls-2" d="M59.76,51.8,45.39,47.6a3.92,3.92,0,0,1,1.11-7.69h8.82a8.11,8.11,0,0,1,4.55,1.4A2.07,2.07,0,0,0,62.46,41l4.63-4.52a2.16,2.16,0,0,0-.24-3.26,18.82,18.82,0,0,0-11.51-4V22.88a2.13,2.13,0,0,0-2.13-2.12H49a2.13,2.13,0,0,0-2.13,2.12v6.39H46.5A14.57,14.57,0,0,0,32,45.18C32.56,51.31,37.24,56.3,43.14,58l13.64,4a3.92,3.92,0,0,1-1.11,7.69H46.86a8.07,8.07,0,0,1-4.55-1.4,2.09,2.09,0,0,0-2.6.27L35.08,73.1a2.16,2.16,0,0,0,.24,3.26,18.82,18.82,0,0,0,11.51,4v6.39A2.13,2.13,0,0,0,49,88.86h4.25a2.13,2.13,0,0,0,2.13-2.12V80.32c6.2-.12,12-3.8,14.06-9.67A14.61,14.61,0,0,0,59.76,51.8Z"/></g></g></svg>