<svg xmlns="http://www.w3.org/2000/svg" viewBox="0 0 105.9 105.9"><defs><style>.cls-1{fill:none;stroke:#646464;stroke-miterlimit:10;stroke-width:4px;}.cls-2{fill:#646464;}</style></defs><g id="Layer_2" data-name="Layer 2"><g id="plane"><circle class="cls-1" cx="52.95" cy="52.95" r="50.95"/><path class="cls-2" d="M82.14,69.85H23.76a1.54,1.54,0,0,0-1.54,1.53v3.08A1.53,1.53,0,0,0,23.76,76H82.14a1.53,1.53,0,0,0,1.54-1.53V71.38A1.54,1.54,0,0,0,82.14,69.85ZM30,59.6a3.17,3.17,0,0,0,2.34,1l12.54,0a6.22,6.22,0,0,0,2.84-.68L75.61,45.75a16.29,16.29,0,0,0,6.44-5.6c1.75-2.73,2-4.71,1.25-6.11s-2.37-2.43-5.59-2.64a16.23,16.23,0,0,0-8.29,1.87L60,38.07,39,30.19a1.71,1.71,0,0,0-1.72-.1l-6.32,3.2A1.75,1.75,0,0,0,30.43,36l15,9.42-9.91,5-7-3.5A1.7,1.7,0,0,0,27,47l-3.85,2a1.74,1.74,0,0,0-.53,2.69Z"/></g></g></svg>